<svg width="69" height="69" viewBox="0 0 69 69" fill="none" xmlns="http://www.w3.org/2000/svg">
<g clip-path="url(#clip0_2654_10285)">
<path d="M69 14.7855C69 12.1713 67.9615 9.66404 66.1129 7.81546C64.2643 5.96688 61.7571 4.92836 59.1429 4.92836H56.6786V2.53338C56.6786 1.20728 55.659 0.0690834 54.3329 0.00285547C53.9997 -0.0131982 53.6667 0.0385633 53.3541 0.155004C53.0415 0.271444 52.7558 0.450139 52.5143 0.680261C52.2728 0.910382 52.0805 1.18714 51.9492 1.49376C51.8178 1.80038 51.75 2.13049 51.75 2.46407V4.92836H17.25V2.53338C17.25 1.20728 16.2304 0.0690834 14.9043 0.00285547C14.5711 -0.0131982 14.2381 0.0385633 13.9255 0.155004C13.6129 0.271444 13.3272 0.450139 13.0857 0.680261C12.8442 0.910382 12.652 1.18714 12.5206 1.49376C12.3892 1.80038 12.3215 2.13049 12.3214 2.46407V4.92836H9.85714C7.24287 4.92836 4.73566 5.96688 2.88709 7.81546C1.03852 9.66404 0 12.1713 0 14.7855V16.6338C0 16.7972 0.0649075 16.9539 0.180443 17.0694C0.295979 17.1849 0.452679 17.2498 0.616071 17.2498H68.3839C68.5473 17.2498 68.704 17.1849 68.8196 17.0694C68.9351 16.9539 69 16.7972 69 16.6338V14.7855ZM0 59.1428C0 61.7571 1.03852 64.2643 2.88709 66.1129C4.73566 67.9615 7.24287 69 9.85714 69H59.1429C61.7571 69 64.2643 67.9615 66.1129 66.1129C67.9615 64.2643 69 61.7571 69 59.1428V22.6405C69 22.5179 68.9513 22.4004 68.8647 22.3138C68.778 22.2271 68.6605 22.1784 68.5379 22.1784H0.462054C0.339509 22.1784 0.221984 22.2271 0.135333 22.3138C0.0486807 22.4004 0 22.5179 0 22.6405V59.1428ZM52.9821 27.107C53.7132 27.107 54.4279 27.3238 55.0358 27.73C55.6436 28.1361 56.1174 28.7134 56.3972 29.3889C56.677 30.0643 56.7502 30.8075 56.6075 31.5246C56.4649 32.2416 56.1129 32.9003 55.5959 33.4172C55.079 33.9342 54.4203 34.2862 53.7033 34.4289C52.9862 34.5715 52.243 34.4983 51.5676 34.2185C50.8921 33.9387 50.3148 33.465 49.9087 32.8571C49.5025 32.2492 49.2857 31.5345 49.2857 30.8034C49.2857 29.8231 49.6752 28.8829 50.3684 28.1897C51.0616 27.4965 52.0018 27.107 52.9821 27.107ZM52.9821 39.4285C53.7132 39.4285 54.4279 39.6453 55.0358 40.0514C55.6436 40.4576 56.1174 41.0349 56.3972 41.7104C56.677 42.3858 56.7502 43.129 56.6075 43.8461C56.4649 44.5631 56.1129 45.2217 55.5959 45.7387C55.079 46.2556 54.4203 46.6077 53.7033 46.7503C52.9862 46.893 52.243 46.8198 51.5676 46.54C50.8921 46.2602 50.3148 45.7864 49.9087 45.1785C49.5025 44.5707 49.2857 43.856 49.2857 43.1249C49.2857 42.1446 49.6752 41.2044 50.3684 40.5111C51.0616 39.8179 52.0018 39.4285 52.9821 39.4285ZM40.6607 27.107C41.3918 27.107 42.1065 27.3238 42.7143 27.73C43.3222 28.1361 43.796 28.7134 44.0758 29.3889C44.3555 30.0643 44.4287 30.8075 44.2861 31.5246C44.1435 32.2416 43.7914 32.9003 43.2745 33.4172C42.7575 33.9342 42.0989 34.2862 41.3818 34.4289C40.6648 34.5715 39.9216 34.4983 39.2462 34.2185C38.5707 33.9387 37.9934 33.465 37.5872 32.8571C37.1811 32.2492 36.9643 31.5345 36.9643 30.8034C36.9643 29.8231 37.3537 28.8829 38.0469 28.1897C38.7402 27.4965 39.6804 27.107 40.6607 27.107ZM40.6607 39.4285C41.3918 39.4285 42.1065 39.6453 42.7143 40.0514C43.3222 40.4576 43.796 41.0349 44.0758 41.7104C44.3555 42.3858 44.4287 43.129 44.2861 43.8461C44.1435 44.5631 43.7914 45.2217 43.2745 45.7387C42.7575 46.2556 42.0989 46.6077 41.3818 46.7503C40.6648 46.893 39.9216 46.8198 39.2462 46.54C38.5707 46.2602 37.9934 45.7864 37.5872 45.1785C37.1811 44.5707 36.9643 43.856 36.9643 43.1249C36.9643 42.1446 37.3537 41.2044 38.0469 40.5111C38.7402 39.8179 39.6804 39.4285 40.6607 39.4285ZM40.6607 51.7499C41.3918 51.7499 42.1065 51.9667 42.7143 52.3729C43.3222 52.7791 43.796 53.3564 44.0758 54.0318C44.3555 54.7073 44.4287 55.4505 44.2861 56.1675C44.1435 56.8846 43.7914 57.5432 43.2745 58.0602C42.7575 58.5771 42.0989 58.9292 41.3818 59.0718C40.6648 59.2144 39.9216 59.1412 39.2462 58.8614C38.5707 58.5817 37.9934 58.1079 37.5872 57.5C37.1811 56.8921 36.9643 56.1775 36.9643 55.4464C36.9643 54.466 37.3537 53.5258 38.0469 52.8326C38.7402 52.1394 39.6804 51.7499 40.6607 51.7499ZM28.3393 39.4285C29.0704 39.4285 29.785 39.6453 30.3929 40.0514C31.0008 40.4576 31.4746 41.0349 31.7543 41.7104C32.0341 42.3858 32.1073 43.129 31.9647 43.8461C31.8221 44.5631 31.47 45.2217 30.9531 45.7387C30.4361 46.2556 29.7775 46.6077 29.0604 46.7503C28.3434 46.893 27.6002 46.8198 26.9247 46.54C26.2493 46.2602 25.672 45.7864 25.2658 45.1785C24.8596 44.5707 24.6429 43.856 24.6429 43.1249C24.6429 42.1446 25.0323 41.2044 25.7255 40.5111C26.4187 39.8179 27.3589 39.4285 28.3393 39.4285ZM28.3393 51.7499C29.0704 51.7499 29.785 51.9667 30.3929 52.3729C31.0008 52.7791 31.4746 53.3564 31.7543 54.0318C32.0341 54.7073 32.1073 55.4505 31.9647 56.1675C31.8221 56.8846 31.47 57.5432 30.9531 58.0602C30.4361 58.5771 29.7775 58.9292 29.0604 59.0718C28.3434 59.2144 27.6002 59.1412 26.9247 58.8614C26.2493 58.5817 25.672 58.1079 25.2658 57.5C24.8596 56.8921 24.6429 56.1775 24.6429 55.4464C24.6429 54.466 25.0323 53.5258 25.7255 52.8326C26.4187 52.1394 27.3589 51.7499 28.3393 51.7499ZM16.0179 39.4285C16.7489 39.4285 17.4636 39.6453 18.0715 40.0514C18.6794 40.4576 19.1531 41.0349 19.4329 41.7104C19.7127 42.3858 19.7859 43.129 19.6433 43.8461C19.5006 44.5631 19.1486 45.2217 18.6316 45.7387C18.1147 46.2556 17.456 46.6077 16.739 46.7503C16.022 46.893 15.2787 46.8198 14.6033 46.54C13.9279 46.2602 13.3506 45.7864 12.9444 45.1785C12.5382 44.5707 12.3214 43.856 12.3214 43.1249C12.3214 42.1446 12.7109 41.2044 13.4041 40.5111C14.0973 39.8179 15.0375 39.4285 16.0179 39.4285ZM16.0179 51.7499C16.7489 51.7499 17.4636 51.9667 18.0715 52.3729C18.6794 52.7791 19.1531 53.3564 19.4329 54.0318C19.7127 54.7073 19.7859 55.4505 19.6433 56.1675C19.5006 56.8846 19.1486 57.5432 18.6316 58.0602C18.1147 58.5771 17.456 58.9292 16.739 59.0718C16.022 59.2144 15.2787 59.1412 14.6033 58.8614C13.9279 58.5817 13.3506 58.1079 12.9444 57.5C12.5382 56.8921 12.3214 56.1775 12.3214 55.4464C12.3214 54.466 12.7109 53.5258 13.4041 52.8326C14.0973 52.1394 15.0375 51.7499 16.0179 51.7499Z" fill="black"/>
</g>
<defs>
<clipPath id="clip0_2654_10285">
<rect width="69" height="69" fill="white"/>
</clipPath>
</defs>
</svg>
