<svg width="192" height="56" viewBox="0 0 192 56" fill="none" xmlns="http://www.w3.org/2000/svg">
<g clip-path="url(#clip0_2386_78237)">
<path fill-rule="evenodd" clip-rule="evenodd" d="M24.8648 4.86942C18.6361 5.06854 12.9519 4.86942 7.76998 3.90776C6.32873 3.6407 5.8124 4.8577 5.85807 5.59446C5.85924 5.61906 5.86158 5.64248 5.86275 5.66591C5.92714 6.42492 6.33458 7.05275 6.86144 6.98364C7.21268 6.93679 7.60841 6.77632 7.60958 6.05362C7.60958 5.97865 7.60958 5.90486 7.60841 5.8299C7.60724 5.47382 7.78871 5.38245 8.04862 5.38948C11.9755 5.48787 15.9023 5.57806 19.8292 5.67177C15.2408 7.05626 10.3879 8.30957 5.55366 8.34237C4.62053 8.3494 3.72839 9.28177 3.86537 10.7401C3.90401 11.1477 3.91923 11.3855 3.93562 11.642C3.96606 12.1035 4.09133 12.3377 4.5538 12.1105C5.05724 11.8622 5.49044 10.9439 5.59464 10.3851C5.64381 10.1193 5.72225 9.99041 5.98919 9.93302C12.3021 8.57663 18.6502 6.7119 24.9608 5.34731C25.3799 5.25361 25.4033 4.88699 24.8648 4.86824V4.86942ZM30.4249 15.8001C30.2399 15.8599 30.1884 15.9302 30.3125 16.1269L30.3218 16.141L30.323 16.1433C31.1566 17.4599 31.6402 19.0213 31.6402 20.6962C31.6402 25.4026 27.8269 29.2176 23.1226 29.2176C19.1009 29.2176 15.7302 26.4287 14.8369 22.6781C14.7959 22.4989 14.7292 22.479 14.5501 22.5387C13.5935 22.8573 12.6393 23.1935 11.6828 23.498C11.4018 23.5871 11.3128 23.8658 11.4193 24.1856L11.6816 24.9657C12.0867 26.0902 11.6114 26.7438 10.526 27.2627C10.1209 27.4395 9.97107 27.3763 9.87038 27.1233L9.35406 25.8254C9.25806 25.5912 9.16088 25.3569 9.06722 25.1215C8.4666 23.6269 9.28733 22.1932 10.5811 21.7434C11.9813 21.2573 13.1158 20.9047 14.2913 20.5428C14.5231 20.4714 14.6051 20.3577 14.6191 20.1832C14.6191 20.1774 14.6203 20.1715 14.6203 20.1645C14.6203 20.1574 14.6215 20.1492 14.6215 20.1422V20.1434C14.906 15.6947 18.6022 12.1737 23.1215 12.1737C25.1598 12.1737 27.0307 12.8906 28.4966 14.0853L28.5024 14.09L28.5188 14.1029C28.6944 14.2435 28.8174 14.2563 29.0281 14.1978L31.5863 13.4763C31.6999 13.4446 31.7151 13.3907 31.6823 13.256C31.351 11.8856 31.0723 10.7459 30.748 9.47738C30.7094 9.32745 30.6087 9.28059 30.4518 9.29934C24.4339 10.138 14.0302 12.1222 5.57473 15.5132C5.33706 15.6162 5.10173 15.7205 4.86874 15.8247C4.38052 16.045 4.21076 16.0344 4.42618 16.9176C6.10276 23.8061 8.0779 30.5482 9.69945 37.4496C9.95702 38.546 7.79807 38.929 7.49367 36.8956C6.50083 30.2694 5.54078 24.2559 2.64657 17.2022C2.44051 16.6997 2.41827 16.2698 2.437 15.895C2.49437 14.7319 3.48252 14.0853 4.99051 13.3556C11.2308 10.3371 19.3468 7.82113 28.2601 6.06182C29.8957 5.74205 29.4555 4.42197 28.1219 4.23808C22.2199 3.32562 16.3238 2.37451 10.4171 1.49954C10.0472 1.44448 9.81301 1.63892 9.79662 2.04303L9.79428 2.08988C9.7615 2.81844 9.51915 2.959 9.25689 2.94963C8.98409 2.93909 8.25586 2.51624 8.23595 1.52413C8.23595 1.48548 8.23712 1.44566 8.23712 1.407C8.23829 0.410212 8.80847 -0.00443422 9.74043 -0.00326291C9.92892 -0.00326291 10.101 0.000251045 10.3176 0.048275C16.5568 1.41872 22.5396 2.54201 28.4919 2.81258C31.0747 2.92971 31.4376 3.95462 31.7748 5.14116C32.4855 7.64544 33.1107 10.1403 33.7382 12.6598C33.7757 12.8109 33.8237 12.8449 33.9888 12.7992C35.5366 12.3623 35.9241 14.0479 34.5121 14.4976L34.4032 14.5328C34.2733 14.5749 34.2253 14.6593 34.2627 14.8221C35.6712 20.7853 36.7425 26.8246 37.4543 32.9482C37.7283 36.0464 35.7461 37.1802 33.4853 37.9416C33.2395 38.0224 33.2125 38.2074 33.3952 38.4417C35.1842 40.7129 37.1371 43.0286 38.919 45.2974C39.0466 45.4591 39.1719 45.4708 39.3393 45.3536C41.7266 43.6927 44.1923 42.7639 46.7493 42.6842C47.6754 42.6737 48.6577 42.9302 48.6788 43.6459C48.6881 43.9727 48.4985 44.3955 48.0114 44.9331C45.1301 48.1929 42.1703 51.3848 39.3674 54.7136C38.3254 55.9517 37.3068 56.4765 36.0541 55.4633C31.872 52.0817 27.5517 49.0093 22.9739 46.4359C21.0058 51.6706 14.5231 54.3564 7.90462 49.9698C7.50655 49.7063 7.18224 49.7004 6.91764 49.9136C4.94602 51.4995 4.12763 52.1766 1.98976 53.246C1.57998 53.4568 1.23342 53.5681 0.934868 53.5634C0.352983 53.5564 -0.00528084 53.1534 0.00408552 52.4952C0.0099395 52.1215 0.125848 51.6577 0.381082 51.1282C1.97102 47.6471 2.36792 44.7387 3.87005 41.2189C4.51516 39.7079 5.45765 39.2886 7.11433 40.2022C8.65276 41.0502 10.3211 41.8936 11.5727 40.4283C12.843 38.9407 14.8322 39.7829 13.6603 41.6699C12.1523 44.1003 9.30723 43.756 5.67191 41.8971C5.5361 41.8268 5.43658 41.8502 5.36399 41.999L5.36633 41.9521C4.72591 43.2804 4.28452 44.5244 3.87708 45.7554C3.79981 45.992 3.85952 46.1443 4.17797 45.9112C6.58045 44.2011 7.99711 44.4096 9.08595 45.6125C13.0046 50.491 21.9073 46.8225 21.5257 40.9448C21.5116 40.782 21.4952 40.6192 21.4741 40.4552C21.2458 39.0672 22.9224 39.0379 23.2233 40.3135C23.3615 40.8534 23.4586 41.3864 23.5148 41.91L23.516 41.9193V41.9252C23.5429 42.1641 23.6471 42.3445 23.9071 42.4745C29.4695 45.2459 34.4419 48.4553 39.0536 51.9306C39.2293 52.063 39.3171 52.0629 39.474 51.8919C41.62 49.5563 43.9242 47.1001 46 44.8406C46.1358 44.6919 46.0246 44.6134 45.8443 44.6157C43.7954 44.72 41.6353 46.1162 39.6004 47.4245C38.7773 47.8497 38.2142 47.6752 37.5913 46.9841C35.7391 44.7188 33.3402 41.2177 31.488 38.9536C30.5829 37.8244 30.4214 36.8675 32.5616 36.2912C33.8085 35.955 35.574 34.8118 35.4019 33.2785C34.7603 27.5672 33.6434 21.6263 32.1951 15.4089C32.1682 15.3023 32.0792 15.2707 31.9551 15.3094L30.4249 15.7966V15.8001ZM23.1215 13.9729C26.8329 13.9729 29.8407 16.982 29.8407 20.6951C29.8407 24.4082 26.8329 27.4173 23.1215 27.4173C19.41 27.4173 16.4023 24.4082 16.4023 20.6951C16.4023 16.982 19.41 13.9729 23.1215 13.9729Z" fill="white"/>
<path d="M48.155 39.2452C47.668 39.3307 47.2406 39.4244 46.8566 39.5357C46.4726 39.647 45.9937 39.6985 45.4306 39.6985C44.8077 39.6985 44.337 39.5193 44.0045 39.1691C43.672 38.8189 43.5011 38.4253 43.5011 37.9989C43.5011 37.6487 43.5608 37.1872 43.6802 36.632C43.7915 36.0768 43.8512 35.5134 43.8512 34.9406C43.7317 32.7877 43.5784 30.6606 43.3899 28.5499C43.1932 26.4392 43.0059 24.5089 42.8267 22.7578C42.6382 20.9973 42.4849 19.5027 42.349 18.2634C42.2214 17.016 42.1523 16.1703 42.1523 15.717C42.1523 15.4183 42.2296 15.136 42.3748 14.8795C42.5282 14.623 42.7331 14.3922 42.9977 14.1966C43.2716 13.9916 43.5784 13.8382 43.9366 13.7269C44.2949 13.6238 44.6801 13.5641 45.0805 13.5641C45.8579 13.5641 46.4386 13.6836 46.8051 13.9319C47.1727 14.1708 47.394 14.5644 47.4795 15.0938C47.949 18.6827 48.2826 21.9718 48.4957 24.9704C48.7006 27.9607 48.8458 30.7719 48.9313 33.3945C48.9313 33.7787 49.0331 34.0692 49.2392 34.2659C49.4523 34.4709 49.7262 34.5646 50.0587 34.5646C50.7249 34.5646 51.3993 34.5307 52.083 34.4534C52.7656 34.376 53.4494 34.2999 54.1331 34.2144C54.8168 34.1371 55.4994 34.0516 56.1738 33.9755C56.8482 33.9075 57.5062 33.8642 58.1384 33.8642C58.5564 33.8642 58.89 33.9157 59.1546 34.0176C59.411 34.1195 59.6077 34.2484 59.7529 34.4194C59.8981 34.5822 59.9836 34.7696 60.0257 34.9828C60.0679 35.1878 60.0854 35.3927 60.0854 35.5895C60.0854 35.914 60.0597 36.2302 59.9918 36.5465C59.9239 36.8628 59.8044 37.1532 59.6417 37.4098C59.4708 37.6663 59.2483 37.8877 58.9673 38.0587C58.677 38.2379 58.3187 38.341 57.8914 38.3749C55.8331 38.5717 53.9633 38.7251 52.2715 38.8189C50.5809 38.9208 49.2052 39.066 48.155 39.2464V39.2452Z" fill="white"/>
<path d="M65.412 27.3915C65.7339 27.1209 66.0489 26.9792 66.3533 26.9792C66.5336 26.9792 66.6917 27.0249 66.8321 27.115C66.9785 27.1994 67.1366 27.3411 67.311 27.5274C67.4796 27.7815 67.599 27.9842 67.6669 28.1482C67.7407 28.3063 67.7735 28.4644 67.7735 28.6167C67.7735 28.9493 67.6096 29.2597 67.277 29.5584C66.7525 29.9988 66.1777 30.3936 65.563 30.7438C64.9425 31.0882 64.2997 31.381 63.6288 31.6246C62.958 31.8671 62.2637 32.0533 61.5472 32.1833C60.8306 32.3075 60.12 32.3696 59.4152 32.3696C58.5242 32.3696 57.6835 32.2571 56.905 32.0311C56.1205 31.805 55.4216 31.4841 54.8128 31.0659C54.2039 30.6489 53.6853 30.1406 53.2673 29.5537C52.8505 28.961 52.5508 28.3016 52.3763 27.5625C52.2745 27.2521 52.1843 27.0495 52.1 26.9593C52.0216 26.8632 51.8858 26.8175 51.6996 26.8175C51.2875 26.8175 50.9772 26.7156 50.7583 26.5188C50.5382 26.3209 50.4258 26.0339 50.4258 25.6614C50.4258 25.5033 50.4375 25.4073 50.4597 25.3628L50.4937 25.0301C50.5499 24.6354 50.6576 24.3472 50.8157 24.1727C50.9737 23.9982 51.2278 23.908 51.5661 23.908H51.8143C52.2768 23.908 52.6035 23.6936 52.7896 23.2649C53.1338 22.5036 53.5682 21.809 54.0927 21.1823C54.6231 20.5498 55.2202 20.0145 55.8805 19.5683C56.5408 19.122 57.2515 18.7788 58.0008 18.5305C58.756 18.2821 59.524 18.158 60.3073 18.158C61.1245 18.158 61.8867 18.2763 62.5974 18.5129C63.3081 18.7495 63.9286 19.0775 64.4531 19.4945C64.9835 19.9126 65.4003 20.4034 65.7047 20.9668C66.0032 21.5255 66.1554 22.1346 66.1554 22.7835C66.1554 23.2345 66.0711 23.6468 65.8908 24.0251C65.7164 24.3976 65.4623 24.7244 65.1357 25.0067C64.8032 25.289 64.4027 25.515 63.9344 25.6954C63.4661 25.8699 62.9357 25.9836 62.3386 26.0398L56.6088 26.6208C56.3886 26.6208 56.2083 26.6711 56.0725 26.7847C55.932 26.8925 55.8641 27.0448 55.8641 27.231C55.8641 27.5192 55.9718 27.7956 56.1861 28.0603C56.4004 28.3203 56.6884 28.5569 57.0431 28.7596C57.4037 28.9622 57.8158 29.1262 58.2842 29.2445C58.7525 29.3687 59.2372 29.4307 59.7336 29.4307C60.2078 29.4307 60.6925 29.3804 61.1948 29.2902C61.697 29.1941 62.1935 29.0583 62.6782 28.8837C63.1687 28.7092 63.6488 28.4949 64.1112 28.2465C64.5737 27.9982 65.008 27.7159 65.4143 27.395L65.412 27.3915ZM61.7286 23.1314C61.8926 23.0974 62.0389 23.019 62.1572 22.8889C62.2813 22.7648 62.3375 22.6067 62.3375 22.4204C62.3375 22.2517 62.2813 22.0983 62.1572 21.9577C62.0389 21.8113 61.8691 21.6813 61.6607 21.5689C61.4523 21.4506 61.21 21.3604 60.9337 21.2924C60.6632 21.2304 60.3694 21.1964 60.0591 21.1964C59.6083 21.1964 59.1459 21.2585 58.6717 21.3943C58.1975 21.5244 57.769 21.6989 57.3862 21.9132C56.9975 22.1276 56.6813 22.3642 56.439 22.6242C56.2025 22.8843 56.0784 23.1373 56.0784 23.3914C56.0784 23.6456 56.2306 23.7756 56.5408 23.7756C56.727 23.7756 57.0314 23.7534 57.4494 23.7077C57.8662 23.662 58.3345 23.6116 58.8368 23.5496C59.3449 23.4933 59.8577 23.4195 60.3764 23.3469C60.895 23.2684 61.3458 23.1947 61.7298 23.1326L61.7286 23.1314Z" fill="white"/>
<path d="M73.2324 18.1545C74.0952 18.1545 74.978 18.2669 75.8947 18.4907C76.8103 18.7144 77.6474 19.0049 78.4049 19.3609C79.1624 19.717 79.7888 20.1129 80.2759 20.5475C80.7641 20.9891 81.0076 21.4108 81.0076 21.8266C81.0076 22.0304 80.9221 22.2623 80.7372 22.5118C80.5592 22.7625 80.3414 22.9991 80.085 23.224C79.8275 23.4477 79.5441 23.6398 79.2421 23.7838C78.9388 23.9361 78.6754 24.0076 78.4447 24.0076C78.1345 24.0076 77.7926 23.8752 77.4098 23.6187C77.0281 23.361 76.6124 23.0775 76.1582 22.7613C75.6969 22.445 75.1958 22.1545 74.656 21.898C74.1151 21.6403 73.5356 21.5162 72.9034 21.5162C72.4877 21.5162 72.1517 21.6146 71.8883 21.8125C71.6249 22.0105 71.4926 22.2939 71.4926 22.6559C71.4926 22.9721 71.6436 23.3024 71.9538 23.6316C72.2641 23.9549 72.6727 24.298 73.1797 24.6401C73.6866 24.9891 74.2673 25.3593 74.9125 25.7411C75.5517 26.13 76.2109 26.5458 76.8899 26.9804C77.562 27.4149 78.227 27.8963 78.8662 28.4105C79.5125 28.9248 80.085 29.4846 80.5931 30.0914C81.1001 30.6911 81.5087 31.3505 81.819 32.0686C82.1292 32.7807 82.2873 33.5585 82.2873 34.396C82.2873 35.114 82.155 35.7734 81.8986 36.3673C81.641 36.96 81.2722 37.4683 80.798 37.89C80.3239 38.3187 79.7572 38.642 79.098 38.8786C78.4459 39.1094 77.7212 39.2218 76.9368 39.2218C75.9486 39.2218 75.0319 39.0707 74.1959 38.7673C73.3588 38.471 72.6411 38.0552 72.0346 37.521C71.4282 36.994 70.954 36.3673 70.618 35.6294C70.2749 34.8973 70.104 34.0938 70.104 33.2165C70.104 32.0826 70.3077 31.258 70.7105 30.7438C71.1191 30.2296 71.7583 29.9719 72.6341 29.9719C73.175 29.9719 73.6023 30.0773 73.9255 30.2823C74.2486 30.4861 74.4067 30.7368 74.4067 31.0343C74.4067 31.1924 74.3797 31.3505 74.3341 31.5087C74.2814 31.6668 74.2287 31.8378 74.169 32.01C74.1093 32.181 74.0566 32.3661 74.0109 32.564C73.9653 32.755 73.9454 32.9459 73.9454 33.138C73.9454 33.4741 74.025 33.7974 74.176 34.1067C74.3341 34.4171 74.539 34.6865 74.8024 34.9242C75.0729 35.1679 75.3761 35.3529 75.725 35.4982C76.068 35.6364 76.4368 35.709 76.8255 35.709C77.8535 35.709 78.3675 35.2873 78.3675 34.437C78.3675 33.7646 78.104 33.1321 77.5772 32.5312C77.0503 31.9315 76.3841 31.3447 75.5868 30.7778C74.7895 30.2038 73.9325 29.624 73.0099 29.0442C72.0873 28.4644 71.2303 27.8647 70.433 27.231C69.6357 26.5985 68.9707 25.9262 68.4426 25.214C67.9158 24.496 67.6523 23.7241 67.6523 22.8866C67.6523 22.1873 67.7975 21.5548 68.0879 20.975C68.3782 20.3952 68.7728 19.8939 69.2739 19.4781C69.775 19.0564 70.3674 18.7331 71.0395 18.5024C71.7185 18.2716 72.4491 18.1533 73.2335 18.1533L73.2324 18.1545Z" fill="white"/>
<path d="M83.8309 19.2696C83.9304 18.7788 84.2267 18.4485 84.7242 18.281C85.216 18.1123 85.8751 18.1123 86.6888 18.2775C86.882 18.3173 87.0448 18.377 87.1911 18.4543C87.3293 18.5363 87.4452 18.6605 87.5377 18.8338C87.6255 19.0002 87.6946 19.2227 87.7461 19.4956C87.7976 19.7686 87.8292 20.1117 87.8526 20.5264C87.8596 20.9855 87.9182 21.2257 88.0224 21.2468C88.1067 21.2643 88.253 21.105 88.4509 20.7618C88.8291 20.0918 89.2541 19.5261 89.7376 19.0658C90.2153 18.6043 90.7269 18.2376 91.2643 17.9776C91.8087 17.7117 92.3684 17.543 92.9526 17.481C93.5368 17.4189 94.1363 17.4458 94.7369 17.5688C95.9639 17.8183 97.0598 18.2845 98.0245 18.958C98.9904 19.6327 99.7701 20.4573 100.373 21.4283C100.982 22.4005 101.388 23.4781 101.609 24.674C101.824 25.8676 101.8 27.108 101.538 28.393C101.261 29.7564 100.77 30.9745 100.057 32.0334C99.3487 33.1005 98.487 33.9673 97.4695 34.6349C96.4521 35.3026 95.3188 35.7512 94.0543 35.9843C92.7887 36.2244 91.4622 36.1963 90.0806 35.9152L89.1194 35.6785C88.5516 35.5626 88.2015 35.8273 88.0704 36.4739L87.2719 45.3536C87.2145 45.5703 87.1033 45.7495 86.93 45.91C86.7638 46.0646 86.5507 46.1888 86.3037 46.2801C86.0554 46.3774 85.7745 46.4348 85.463 46.4453C85.1504 46.4617 84.839 46.4394 84.5229 46.375C83.612 46.1899 83.1823 45.7929 83.2256 45.1826C83.4282 42.8353 83.5815 40.5922 83.6811 38.4534C83.7794 36.3204 83.8485 34.3292 83.8766 32.4715C83.9035 30.6196 83.9105 28.9329 83.893 27.402C83.8754 25.8711 83.8567 24.5417 83.8251 23.4055C83.8005 22.2705 83.7853 21.3522 83.7829 20.6388C83.7724 19.9302 83.7923 19.4699 83.8333 19.2696H83.8309ZM88.9614 25.515C88.7939 26.335 88.6605 27.156 88.5621 27.9701C88.4638 28.7842 88.3842 29.6697 88.3362 30.6349C88.2917 31.2182 88.5364 31.5977 89.0632 31.7851C89.377 31.9292 89.7306 32.0756 90.1286 32.2314C90.5209 32.3848 90.8569 32.4879 91.1344 32.5441C91.941 32.7081 92.7021 32.7362 93.4034 32.6296C94.1105 32.5254 94.7416 32.297 95.2977 31.9456C95.855 31.5883 96.3245 31.1315 96.7027 30.5634C97.0808 29.9941 97.3431 29.3347 97.4965 28.5792C97.685 27.655 97.7365 26.7719 97.6475 25.9191C97.5585 25.0664 97.3583 24.2992 97.0399 23.6152C96.7284 22.9323 96.3128 22.3642 95.7953 21.9015C95.2755 21.4459 94.6784 21.1425 93.9946 21.0031C93.4069 20.8836 92.8379 20.9024 92.3016 21.0617C91.7642 21.221 91.2713 21.4974 90.8358 21.8863C90.3921 22.2799 90.0081 22.7812 89.6873 23.402C89.3676 24.0157 89.1229 24.7197 88.9614 25.515Z" fill="white"/>
<path d="M113.433 19.115C112.966 19.0306 112.529 19.0787 112.134 19.2614C111.733 19.4429 111.366 19.7323 111.034 20.12C110.702 20.5088 110.402 20.9832 110.126 21.5431C109.857 22.1042 109.605 22.7215 109.381 23.4043C109.151 24.079 108.949 24.7935 108.776 25.5525C108.6 26.3045 108.442 27.0659 108.302 27.8378C108.118 28.8498 107.977 29.8559 107.883 30.8504C107.788 31.8519 107.663 32.7667 107.512 33.6042C107.414 34.1488 107.135 34.5412 106.67 34.7778C106.212 35.0097 105.607 35.0613 104.862 34.9254C104.72 34.8996 104.566 34.8586 104.389 34.8001C104.217 34.7485 104.058 34.6665 103.918 34.56C103.77 34.4522 103.652 34.3245 103.552 34.1722C103.46 34.0153 103.422 33.8209 103.451 33.5913C103.543 32.4551 103.579 31.2896 103.577 30.0832C103.575 28.8767 103.52 27.6679 103.406 26.4474C103.291 25.2339 103.111 24.0087 102.87 22.7929C102.63 21.5701 102.312 20.3601 101.926 19.1642C101.863 18.958 101.806 18.7601 101.769 18.5867C101.728 18.4052 101.725 18.2435 101.752 18.0948C101.787 17.9003 101.907 17.7141 102.117 17.5173C102.332 17.3287 102.584 17.16 102.877 17.0183C103.171 16.8778 103.483 16.7735 103.817 16.7067C104.142 16.6447 104.459 16.6423 104.75 16.695C105.23 16.7817 105.592 17.1893 105.841 17.9179C106.089 18.6535 106.235 19.7721 106.289 21.2889C106.307 21.5537 106.326 21.7446 106.348 21.8488C106.368 21.9601 106.404 22.0198 106.469 22.0315C106.612 22.0573 106.736 21.8523 106.852 21.4307C107.226 20.2523 107.672 19.2684 108.193 18.4649C108.72 17.6625 109.31 17.0324 109.964 16.5685C110.617 16.1047 111.321 15.8025 112.089 15.6678C112.85 15.5307 113.665 15.5448 114.52 15.7006C115.019 15.7908 115.512 15.9208 116.001 16.1035C116.491 16.2862 116.922 16.4982 117.296 16.7536C117.666 17.0019 117.959 17.276 118.165 17.5747C118.372 17.8734 118.451 18.1826 118.392 18.5C118.351 18.7273 118.249 18.9896 118.104 19.279C117.951 19.573 117.773 19.8482 117.573 20.1071C117.365 20.3648 117.146 20.5721 116.916 20.7384C116.686 20.8977 116.467 20.9586 116.266 20.9223C116.039 20.8813 115.823 20.7747 115.635 20.6002C115.444 20.4315 115.237 20.2465 115.019 20.0462C114.8 19.8529 114.566 19.6631 114.319 19.4769C114.07 19.2977 113.777 19.1782 113.434 19.115H113.433Z" fill="white"/>
<path d="M121.099 16.6599C120.724 16.6599 120.375 16.6001 120.045 16.4947C119.716 16.3823 119.432 16.2312 119.195 16.0332C118.957 15.8294 118.766 15.5975 118.628 15.3281C118.483 15.0575 118.41 14.7612 118.41 14.4379C118.41 13.8967 118.628 13.4552 119.062 13.126C119.491 12.7898 120.063 12.6188 120.789 12.6188C121.125 12.6188 121.441 12.6844 121.752 12.8039C122.062 12.9292 122.338 13.0944 122.575 13.2982C122.812 13.502 123.003 13.7468 123.141 14.0232C123.287 14.2997 123.352 14.5831 123.352 14.8806C123.352 15.4347 123.154 15.8692 122.746 16.1855C122.344 16.5017 121.79 16.6599 121.098 16.6599H121.099ZM118.45 22.5469C118.45 22.0983 118.648 21.7293 119.044 21.4389C119.432 21.1484 119.953 21.0031 120.593 21.0031C121.753 21.0031 122.372 21.399 122.451 22.2025C122.503 22.7496 122.556 23.3762 122.616 24.0743C122.668 24.7666 122.728 25.5045 122.787 26.2822C122.846 27.06 122.899 27.8647 122.938 28.6952C122.983 29.5256 123.03 30.3432 123.063 31.1479C123.103 31.9526 123.135 32.7303 123.161 33.4753C123.188 34.2273 123.201 34.9055 123.201 35.5251C123.201 36.1717 122.97 36.6519 122.516 36.9752C122.062 37.2985 121.396 37.4566 120.52 37.4566C120.118 37.4566 119.808 37.3641 119.584 37.1731C119.354 36.9881 119.241 36.7187 119.241 36.3556C119.241 34.5752 119.202 32.9142 119.116 31.3646C119.038 29.8091 118.945 28.4304 118.846 27.2181C118.753 26.0117 118.661 25.0032 118.575 24.1985C118.497 23.3938 118.45 22.8409 118.45 22.5434V22.5469Z" fill="white"/>
<path d="M134.646 18.8807C134.679 18.5246 134.732 18.2212 134.791 17.9846C134.844 17.7469 134.937 17.5559 135.062 17.4048C135.18 17.2596 135.338 17.1542 135.53 17.0886C135.728 17.023 135.972 16.9902 136.268 16.9902C137.203 16.9902 137.895 17.1284 138.344 17.406C138.785 17.6824 139.009 18.124 139.009 18.7308C139.009 18.8432 138.983 19.0997 138.936 19.4956C138.896 19.8845 138.831 20.3659 138.758 20.9399C138.678 21.5138 138.593 22.1463 138.495 22.8316C138.396 23.5238 138.304 24.2231 138.218 24.9282C137.981 26.5763 137.717 28.4293 137.421 30.472C137.243 31.6855 136.887 32.5488 136.353 33.0829C135.819 33.61 135.029 33.8736 133.987 33.8736C133.203 33.8736 132.392 33.6697 131.555 33.2738C130.718 32.8721 129.908 32.3309 129.124 31.6516C128.339 30.9663 127.595 30.1745 126.89 29.2656C126.191 28.3555 125.578 27.3938 125.052 26.3713C124.518 25.3429 124.103 24.3016 123.806 23.2263C123.503 22.158 123.352 21.1167 123.352 20.1012C123.352 18.9545 123.517 18.0971 123.839 17.5231C124.168 16.9492 124.741 16.6599 125.551 16.6599C126.118 16.6599 126.586 16.6997 126.962 16.7653C127.331 16.8379 127.634 16.9633 127.858 17.1343C128.082 17.3123 128.24 17.536 128.339 17.8195C128.437 18.1029 128.484 18.459 128.484 18.8807C128.484 19.1642 128.471 19.4476 128.445 19.7311C128.418 20.0145 128.405 20.298 128.405 20.5815C128.405 21.2409 128.477 21.9261 128.608 22.6383C128.747 23.3504 128.925 24.0497 129.162 24.7349C129.393 25.4143 129.663 26.0667 129.972 26.6735C130.276 27.2861 130.605 27.8272 130.955 28.2887C131.304 28.7502 131.654 29.1192 132.01 29.3898C132.358 29.6603 132.709 29.7985 133.038 29.7985C133.275 29.7985 133.446 29.7201 133.571 29.5608C133.697 29.4085 133.775 29.1449 133.815 28.7701L134.645 18.8819L134.646 18.8807Z" fill="white"/>
<path d="M152.136 16.6599C152.841 16.6599 153.527 16.7723 154.185 16.989C154.837 17.2069 155.417 17.5103 155.918 17.8991C156.419 18.288 156.82 18.7495 157.124 19.2907C157.427 19.8318 157.578 20.4315 157.578 21.084C157.578 21.3545 157.518 21.6181 157.393 21.8687C157.275 22.1194 157.109 22.3373 156.906 22.5282C156.695 22.7133 156.464 22.8573 156.201 22.9698C155.938 23.0822 155.66 23.1349 155.378 23.1349C155.351 23.1349 155.332 23.1349 155.312 23.142C155.292 23.149 155.273 23.1548 155.247 23.1548C155.22 23.1677 155.194 23.1748 155.167 23.1748L155.247 24.7174C155.299 26.5564 155.557 27.901 156.024 28.7526C156.498 29.6029 157.112 30.0316 157.869 30.0316C158.14 30.0316 158.383 30.0047 158.594 29.952C158.805 29.8993 159.01 29.8396 159.193 29.7669C159.378 29.7013 159.555 29.6346 159.72 29.5819C159.891 29.5362 160.056 29.5092 160.227 29.5092C160.518 29.5092 160.781 29.6346 161.005 29.8911C161.228 30.1476 161.341 30.458 161.341 30.8211C161.341 31.1842 161.203 31.5391 160.925 31.9022C160.649 32.2653 160.286 32.5875 159.837 32.8779C159.389 33.1684 158.875 33.405 158.315 33.5831C157.749 33.7611 157.175 33.8537 156.596 33.8537C155.587 33.8537 154.711 33.4378 153.946 32.6074C153.188 31.7769 152.648 30.5576 152.324 28.9482C152.252 28.6905 152.146 28.5593 152.014 28.5593C151.862 28.5593 151.724 28.6378 151.613 28.7901C150.341 30.3983 148.977 31.6118 147.541 32.4164C146.097 33.2211 144.674 33.6229 143.271 33.6229C142.619 33.6229 142.025 33.5245 141.498 33.3324C140.971 33.1345 140.523 32.8639 140.154 32.5078C139.791 32.1588 139.508 31.723 139.304 31.2158C139.106 30.7087 139.008 30.1347 139.008 29.5081C139.008 28.6179 139.206 27.682 139.594 26.7063C139.99 25.7235 140.517 24.7619 141.189 23.8061C141.854 22.8562 142.633 21.9472 143.515 21.0828C144.398 20.2195 145.321 19.4605 146.296 18.8081C147.264 18.1486 148.254 17.6274 149.255 17.2385C150.263 16.8555 151.218 16.6587 152.135 16.6587L152.136 16.6599ZM151.497 23.3446C151.734 22.9089 151.945 22.5868 152.136 22.3888C152.327 22.1909 152.604 22.0597 152.966 21.9929C153.249 21.9531 153.388 21.8676 153.388 21.7223C153.388 21.6169 153.355 21.5115 153.275 21.3932C153.032 21.057 152.774 20.7665 152.504 20.5159C152.233 20.2652 151.871 20.1399 151.423 20.1399C150.929 20.1399 150.382 20.2781 149.783 20.5615C149.176 20.845 148.564 21.221 147.937 21.6954C147.311 22.1639 146.699 22.698 146.099 23.2977C145.506 23.8975 144.973 24.5112 144.512 25.1437C144.043 25.7704 143.675 26.3959 143.391 27.0155C143.108 27.6281 142.963 28.1821 142.963 28.6764C142.963 29.111 143.081 29.4542 143.326 29.6978C143.563 29.9415 143.885 30.0668 144.301 30.0668C145.355 30.0668 146.508 29.5069 147.754 28.3859C148.999 27.265 150.251 25.5842 151.497 23.3423V23.3446Z" fill="white"/>
<path d="M163.122 14.0268C163.122 13.3474 163.313 12.866 163.701 12.5896C164.083 12.3131 164.722 12.1737 165.612 12.1737C165.928 12.1737 166.206 12.2007 166.429 12.2592C166.653 12.319 166.851 12.4244 167.009 12.5755C167.167 12.7336 167.299 12.9386 167.398 13.1881C167.49 13.4388 167.569 13.755 167.635 14.1439C167.793 15.3375 167.964 16.5767 168.149 17.8488C168.334 19.1278 168.531 20.4069 168.736 21.6919C168.815 22.2717 169.117 22.5621 169.646 22.5621C169.784 22.5621 170.021 22.5493 170.35 22.5165C171.314 22.4204 172.426 22.2084 173.343 22.1358C173.625 22.1135 173.85 22.1955 174.022 22.3009C174.187 22.4134 174.318 22.5516 174.418 22.7296C174.51 22.9007 174.576 23.0928 174.609 23.3094C174.641 23.5203 174.654 23.7381 174.654 23.956C174.654 24.1469 174.621 24.3449 174.549 24.5557C174.476 24.7595 174.384 24.9446 174.258 25.1027C174.14 25.2609 173.988 25.3932 173.804 25.4986C173.461 25.7024 171.033 25.7751 170.318 25.8453C169.744 25.9238 169.455 26.2143 169.455 26.7156C169.455 26.7555 169.462 26.8011 169.475 26.8609C169.482 26.9206 169.487 26.9663 169.487 27.0061C169.646 28.1271 169.791 29.1754 169.923 30.1511C170.061 31.1338 170.174 32.0041 170.272 32.7678C170.37 33.5397 170.443 34.1722 170.503 34.6794C170.562 35.1936 170.588 35.5298 170.588 35.695C170.588 36.1635 170.548 36.5524 170.456 36.8686C170.363 37.179 170.218 37.4355 170.014 37.6405C169.804 37.8385 169.533 37.9837 169.19 38.0622C168.847 38.1477 168.419 38.1875 167.905 38.1875C167.417 38.1875 167.055 38.0751 166.824 37.8443C166.593 37.6065 166.461 37.2575 166.442 36.7761C166.363 35.2604 166.238 33.7307 166.073 32.1939C165.902 30.6513 165.71 29.1157 165.494 27.5859C165.376 27.0319 165.092 26.7555 164.624 26.7555C164.584 26.7555 164.539 26.7625 164.492 26.7754C164.439 26.7883 164.393 26.7953 164.354 26.7953C163.556 26.9733 162.805 27.1514 162.093 27.3364C161.388 27.5145 160.722 27.7054 160.109 27.9162C159.76 28.0287 159.45 28.1072 159.18 28.154C158.909 28.1997 158.666 28.2266 158.448 28.2266C158.152 28.2266 157.934 28.0943 157.789 27.8249C157.651 27.5613 157.578 27.231 157.578 26.8363C157.578 26.691 157.591 26.5259 157.618 26.342C157.645 26.1569 157.691 25.966 157.763 25.7821C157.829 25.597 157.934 25.419 158.073 25.2609C158.206 25.0957 158.389 24.9645 158.62 24.865C159.161 24.6471 159.879 24.4163 160.781 24.1797C161.684 23.942 162.699 23.7182 163.833 23.5144C164.089 23.4488 164.294 23.3434 164.439 23.1911C164.59 23.0459 164.663 22.8222 164.663 22.5247C164.663 22.4591 164.663 22.3923 164.663 22.3209C164.663 22.2553 164.65 22.1826 164.623 22.103C164.419 20.9164 164.221 19.8412 164.036 18.8655C163.845 17.8968 163.687 17.0593 163.555 16.3671C163.417 15.6678 163.312 15.1208 163.232 14.726C163.153 14.3243 163.119 14.0935 163.119 14.0268H163.122Z" fill="white"/>
<path d="M189.639 28.8861C189.961 28.6155 190.275 28.4738 190.58 28.4738C190.76 28.4738 190.918 28.5195 191.059 28.6096C191.205 28.694 191.363 28.8357 191.538 29.022C191.706 29.2761 191.826 29.4788 191.893 29.6428C191.967 29.8009 192 29.959 192 30.1113C192 30.4439 191.836 30.7543 191.504 31.053C190.979 31.4934 190.404 31.8882 189.79 32.2384C189.169 32.5828 188.526 32.8756 187.855 33.1192C187.185 33.3617 186.49 33.5479 185.774 33.6779C185.057 33.8021 184.347 33.8642 183.642 33.8642C182.751 33.8642 181.91 33.7517 181.132 33.5257C180.347 33.2996 179.648 32.9787 179.039 32.5605C178.43 32.1435 177.912 31.6352 177.494 31.0483C177.077 30.4556 176.777 29.7962 176.603 29.0571C176.501 28.7467 176.411 28.5441 176.327 28.4539C176.248 28.3578 176.112 28.3121 175.926 28.3121C175.514 28.3121 175.204 28.2102 174.985 28.0134C174.765 27.8155 174.652 27.5285 174.652 27.156C174.652 26.9979 174.664 26.9019 174.686 26.8574L174.72 26.5247C174.776 26.13 174.884 25.8418 175.042 25.6673C175.2 25.4928 175.454 25.4026 175.793 25.4026H176.041C176.503 25.4026 176.83 25.1882 177.016 24.7595C177.36 23.9982 177.795 23.3036 178.319 22.6769C178.85 22.0444 179.447 21.5091 180.107 21.0629C180.767 20.6166 181.478 20.2734 182.227 20.0251C182.983 19.7767 183.751 19.6526 184.534 19.6526C185.351 19.6526 186.113 19.7709 186.824 20.0075C187.535 20.2441 188.155 20.5721 188.68 20.9891C189.21 21.4072 189.627 21.898 189.931 22.4614C190.23 23.0201 190.382 23.6292 190.382 24.2781C190.382 24.7291 190.298 25.1414 190.117 25.5197C189.943 25.8922 189.689 26.219 189.362 26.5013C189.03 26.7836 188.629 27.0096 188.161 27.19C187.693 27.3645 187.162 27.4782 186.565 27.5344L180.835 28.1154C180.615 28.1154 180.435 28.1657 180.299 28.2793C180.159 28.3871 180.091 28.5394 180.091 28.7256C180.091 29.0138 180.198 29.2902 180.413 29.5549C180.627 29.8149 180.915 30.0515 181.27 30.2542C181.63 30.4568 182.042 30.6208 182.511 30.7391C182.979 30.8633 183.464 30.9253 183.96 30.9253C184.434 30.9253 184.919 30.875 185.421 30.7848C185.924 30.6887 186.42 30.5529 186.905 30.3783C187.395 30.2038 187.875 29.9895 188.338 29.7411C188.8 29.4928 189.235 29.2105 189.641 28.8896L189.639 28.8861ZM185.955 24.626C186.119 24.592 186.265 24.5136 186.384 24.3835C186.508 24.2594 186.564 24.1012 186.564 23.915C186.564 23.7463 186.508 23.5929 186.384 23.4523C186.265 23.3059 186.096 23.1759 185.887 23.0635C185.679 22.9452 185.437 22.855 185.16 22.787C184.89 22.725 184.596 22.691 184.286 22.691C183.835 22.691 183.372 22.7531 182.898 22.8889C182.424 23.019 181.996 23.1935 181.613 23.4078C181.224 23.6222 180.908 23.8588 180.666 24.1188C180.429 24.3789 180.305 24.6319 180.305 24.886C180.305 25.1402 180.457 25.2702 180.767 25.2702C180.954 25.2702 181.258 25.248 181.676 25.2023C182.093 25.1566 182.561 25.1062 183.063 25.0442C183.571 24.9879 184.084 24.9141 184.603 24.8415C185.122 24.763 185.572 24.6893 185.956 24.6272L185.955 24.626Z" fill="white"/>
</g>
<defs>
<clipPath id="clip0_2386_78237">
<rect width="192" height="56" fill="white"/>
</clipPath>
</defs>
</svg>
