<svg width="69" height="69" viewBox="0 0 69 69" fill="none" xmlns="http://www.w3.org/2000/svg">
<g clip-path="url(#clip0_2654_10283)">
<path d="M53.7441 8.43087L46.8441 4.7909C40.7859 1.59812 37.7568 0 34.5 0C31.2432 0 28.2141 1.59465 22.1559 4.7909L21.0485 5.37676L51.8328 23.0532L65.688 16.0852C63.4593 13.5476 59.8644 11.6514 53.7441 8.42393M68.1306 20.675L54.3375 27.6083V38.133C54.3375 38.8226 54.0649 39.4839 53.5796 39.9715C53.0944 40.4591 52.4362 40.733 51.75 40.733C51.0638 40.733 50.4056 40.4591 49.9204 39.9715C49.4351 39.4839 49.1625 38.8226 49.1625 38.133V30.2083L37.0875 36.2749V69C39.5646 68.3795 42.3833 66.8958 46.8441 64.5419L53.7441 60.9019C61.165 56.9881 64.8773 55.0329 66.9404 51.5143C69 47.9991 69 43.6207 69 34.8744V34.4688C69 27.9065 69 23.802 68.1306 20.675ZM31.9125 69V36.2749L0.8694 20.675C3.08454e-07 23.802 0 27.9065 0 34.4619V34.8675C0 43.6207 -4.11272e-07 47.9991 2.05965 51.5143C4.12275 55.0329 7.83495 56.9916 15.2559 60.9054L22.1559 64.5419C26.6168 66.8958 29.4354 68.3795 31.9125 69ZM3.312 16.0887L34.5 31.7579L46.268 25.8473L15.6113 8.24367L15.2559 8.43087C9.13905 11.6548 5.5407 13.5511 3.312 16.0921" fill="black"/>
</g>
<defs>
<clipPath id="clip0_2654_10283">
<rect width="69" height="69" fill="white"/>
</clipPath>
</defs>
</svg>
