<svg width="69" height="69" viewBox="0 0 69 69" fill="none" xmlns="http://www.w3.org/2000/svg">
<path d="M57.2828 8.36999C45.4941 -2.79 26.3809 -2.79 14.5922 8.36999C11.7932 11.0016 9.56915 14.1451 8.05069 17.6158C6.53222 21.0864 5.75 24.8142 5.75 28.58C5.75 32.3458 6.53222 36.0735 8.05069 39.5442C9.56915 43.0149 11.7932 46.1584 14.5922 48.79L35.9356 69L57.2828 48.79C60.0818 46.1584 62.3059 43.0149 63.8243 39.5442C65.3428 36.0735 66.125 32.3458 66.125 28.58C66.125 24.8142 65.3428 21.0864 63.8243 17.6158C62.3059 14.1451 60.0818 11.0016 57.2828 8.36999ZM35.9356 38.1312C33.4149 38.1312 31.0488 37.1869 29.2639 35.4728C27.4969 33.7687 26.5045 31.4596 26.5045 29.0521C26.5045 26.6447 27.4969 24.3355 29.2639 22.6314C31.045 20.9173 33.4149 19.973 35.9356 19.973C38.4564 19.973 40.8262 20.9173 42.6073 22.6314C44.3743 24.3355 45.3667 26.6447 45.3667 29.0521C45.3667 31.4596 44.3743 33.7687 42.6073 35.4728C40.8262 37.1869 38.4564 38.1312 35.9356 38.1312Z" fill="black"/>
</svg>
