<svg width="16" height="13" viewBox="0 0 16 13" fill="none" xmlns="http://www.w3.org/2000/svg">
<g clipPath="url(#clip0_83_6137)">
<path d="M9.05127 6.48894L10.6111 8.24653L12.7087 9.56778L13.0736 6.50003L12.7087 3.50146L10.5709 4.66216L9.05127 6.48894Z" fill="#00832D"/>
<path d="M0 9.28229V11.8965C0 12.4933 0.4915 12.978 1.09713 12.978H3.749L4.29812 11.0028L3.749 9.28229L1.92963 8.74097L0 9.28229Z" fill="#0066DA"/>
<path d="M3.749 0L0 3.6957L1.92975 4.23572L3.749 3.6957L4.28813 1.99861L3.749 0Z" fill="#E94235"/>
<path d="M0 9.28346H3.74894V3.69556H0V9.28346Z" fill="#2684FC"/>
<path d="M15.1039 1.56469L12.709 3.50151V9.56776L15.1138 11.5121C15.4738 11.7901 16.0004 11.5367 16.0004 11.0856V1.98254C16.0004 1.52643 15.4612 1.27432 15.1039 1.56476" fill="#00AC47"/>
<path d="M9.0514 6.48901V9.28235H3.74902V12.978H11.6118C12.2174 12.978 12.7088 12.4934 12.7088 11.8965V9.56786L9.0514 6.48901Z" fill="#00AC47"/>
<path d="M11.6118 0H3.74902V3.6957H9.0514V6.48903L12.7089 3.5015V1.08159C12.7089 0.484573 12.2174 6.16114e-05 11.6118 6.16114e-05" fill="#FFBA00"/>
</g>
<defs>
<clipPath id="clip0_83_6137">
<rect width="16" height="13" fill="white"/>
</clipPath>
</defs>
</svg>
